***************************************************************
 
http://www.torrentforce.org/imghost/3/greyshadow_tfbanner.png

***************************************************************
 
http://www.torrentforce.org/imghost/4/greyshadow_transformerstrilogy.jpg

***************************************************************
***************************************************************
***************************************************************
 
http://www.torrentforce.org/imghost/4/greyshadow_transformers1.jpg

***************************************************************

FILM TITLE: Transformers (2007) 

***************************************************************

Genre:  Action | Sci-Fi | Thriller    

Rated PG-13 for intense sequences of sci-fi action violence, 
brief sexual humor, and language

Release:  27 July 2007 (UK)

Director: Michael Bay

Writer: Roberto Orci (screenplay), Alex Kurtzman

Stars: Shia LaBeouf, Megan Fox and Josh Duhamel

Country: USA 

Language: English | Spanish

Plot:
An ancient struggle re-erupts on Earth between two extraterrestrial 
clans, the heroic Autobots and the evil Decepticons, with a clue to 
the ultimate power held by a young teenager.

IMDB Rating: 7.2/10 from 239,508 users
 
http://www.imdb.com/title/tt0418279/ 

****************************************************************
 
http://www.torrentforce.org/imghost/4/greyshadow_transformers1x2641.png 
http://www.torrentforce.org/imghost/4/greyshadow_transformers1x2642.png 
http://www.torrentforce.org/imghost/4/greyshadow_transformers1x2643.png 
http://www.torrentforce.org/imghost/4/greyshadow_transformers1x2644.png

****************************************************************

[IMG]http://www.torrentforce.org/imghost/2/greyshadow_mediainfo.png[/IMG]
General
Complete name                    : (1) Transformers 2007 720p BDRip x264 aac (mp4) [TFRG].mp4
Format                           : MPEG-4
Format profile                   : Base Media
Codec ID                         : isom
File size                        : 3.66 GiB
Duration                         : 2h 23mn
Overall bit rate                 : 3651 Kbps
Encoded date                     : UTC 2011-10-02 20:38:13
Tagged date                      : UTC 2011-10-02 20:38:13

Video
ID                               : 1
Format                           : AVC
Format/Info                      : Advanced Video Codec
Format profile                   : High@L4.1
Format settings, CABAC           : Yes
Format settings, ReFrames        : 11 frames
Codec ID                         : avc1
Codec ID/Info                    : Advanced Video Coding
Duration                         : 2h 23mn
Bit rate                         : 3199 Kbps
Maximum bit rate                 : 15.0 Mbps
Width                            : 1280 pixels
Height                           : 528 pixels
Display aspect ratio             : 2.40:1
Frame rate mode                  : Constant
Frame rate                       : 23.976 fps
Color space                      : YUV
Chroma subsampling               : 4:2:0
Bit depth                        : 8 bits
Scan type                        : Progressive
Bits/(Pixel*Frame)               : 0.197
Stream size                      : 3.20 GiB (88%)
Title                            : AVC MPEG4 Video
Writing library                  : x264 core 118 r2085 8a62835
Encoded date                     : UTC 2011-10-01 07:53:32
Tagged date                      : UTC 2011-10-02 20:39:25
Color primaries                  : BT.709-5, BT.1361, IEC 61966-2-4, SMPTE RP177
Transfer characteristics         : BT.709-5, BT.1361
Matrix coefficients              : BT.709-5, BT.1361, IEC 61966-2-4 709, SMPTE RP177

Audio
ID                               : 2
Format                           : AAC
Format/Info                      : Advanced Audio Codec
Format profile                   : LC
Codec ID                         : 40
Duration                         : 2h 23mn
Bit rate mode                    : Variable
Bit rate                         : 449 Kbps
Maximum bit rate                 : 462 Kbps
Channel(s)                       : 6 channels
Channel positions                : Front: L C R, Side: L R, LFE
Sampling rate                    : 48.0 KHz
Compression mode                 : Lossy
Stream size                      : 460 MiB (12%)
Title                            : NERO AAC 5.1 448 kbps
Language                         : English
Encoded date                     : UTC 2011-10-02 20:39:16
Tagged date                      : UTC 2011-10-02 20:39:25

****************************************************************

Video Source: Transformers 2007 1080p Blu-ray AVC TrueHD 5.1-KRaLiMaRKo (36.6GB)

Thanks: iptorrents

****************************************************************
****************************************************************
****************************************************************
 
http://www.torrentforce.org/imghost/4/greyshadow_transformers2.jpg

***************************************************************

FILM TITLE: Transformers: Revenge of the Fallen (2009)

***************************************************************

Genre: Action | Adventure | Sci-Fi    

Rated PG-13 for intense sequences of sci-fi action violence, 
language, some crude and sexual material, and brief drug material

Release: 19 June 2009 (UK) 

Director: Michael Bay

Writer: Ehren Kruger, Roberto Orci

Stars: Shia LaBeouf, Megan Fox and Josh Duhamel 

Country: USA

Language: English | Spanish 

Plot:
Sam Witwicky leaves the Autobots behind for a normal life. But 
when his mind is filled with cryptic symbols, the Decepticons 
target him and he is dragged back into the Transformers' war.

IMDB Rating: Ratings: 5.9/10 from 129,888 users
 
http://www.imdb.com/title/tt1055369/ 

****************************************************************
 
http://www.torrentforce.org/imghost/4/greyshadow_transformers2x2641.png 
http://www.torrentforce.org/imghost/4/greyshadow_transformers2x2641.png 
http://www.torrentforce.org/imghost/4/greyshadow_transformers2x2643.png 
http://www.torrentforce.org/imghost/4/greyshadow_transformers2x2644.png

****************************************************************

[IMG]http://www.torrentforce.org/imghost/2/greyshadow_mediainfo.png[/IMG]
General
Complete name                    : (2) Transformers-Revenge Of The Fallen 2009 720p BDRip x264 aac (mp4) [TFRG].mp4
Format                           : MPEG-4
Format profile                   : Base Media
Codec ID                         : isom
File size                        : 3.77 GiB
Duration                         : 2h 30mn
Overall bit rate                 : 3585 Kbps
Encoded date                     : UTC 2011-10-07 15:06:19
Tagged date                      : UTC 2011-10-07 15:06:19

Video
ID                               : 1
Format                           : AVC
Format/Info                      : Advanced Video Codec
Format profile                   : High@L4.1
Format settings, CABAC           : Yes
Format settings, ReFrames        : 12 frames
Codec ID                         : avc1
Codec ID/Info                    : Advanced Video Coding
Duration                         : 2h 30mn
Bit rate                         : 3200 Kbps
Maximum bit rate                 : 12.8 Mbps
Width                            : 1280 pixels
Height                           : 528 pixels
Display aspect ratio             : 2.40:1
Frame rate mode                  : Constant
Frame rate                       : 23.976 fps
Color space                      : YUV
Chroma subsampling               : 4:2:0
Bit depth                        : 8 bits
Scan type                        : Progressive
Bits/(Pixel*Frame)               : 0.197
Stream size                      : 3.36 GiB (89%)
Title                            : AVC MPEG4 Video
Writing library                  : x264 core 118 r2085 8a62835
Encoded date                     : UTC 2011-10-06 10:01:19
Tagged date                      : UTC 2011-10-07 15:07:32
Color primaries                  : BT.709-5, BT.1361, IEC 61966-2-4, SMPTE RP177
Transfer characteristics         : BT.709-5, BT.1361
Matrix coefficients              : BT.709-5, BT.1361, IEC 61966-2-4 709, SMPTE RP177

Audio
ID                               : 2
Format                           : AAC
Format/Info                      : Advanced Audio Codec
Format profile                   : LC
Codec ID                         : 40
Duration                         : 2h 30mn
Bit rate mode                    : Variable
Bit rate                         : 384 Kbps
Maximum bit rate                 : 449 Kbps
Channel(s)                       : 6 channels
Channel positions                : Front: L C R, Side: L R, LFE
Sampling rate                    : 48.0 KHz
Compression mode                 : Lossy
Stream size                      : 410 MiB (11%)
Title                            : AAC 5.1 Audio
Language                         : English
Encoded date                     : UTC 2011-10-07 15:07:23
Tagged date                      : UTC 2011-10-07 15:07:32

****************************************************************

Video Source: Transformers Revenge Of The Fallen 2009 IMAX 1080p Blu-ray Remux AVC DTS-HD MA5.1-KRaLiMaRKo (37.7GB)

Thanks: iptorrents 

****************************************************************
****************************************************************
***************************************************************
 
http://www.torrentforce.org/imghost/4/greyshadow_transformers3.jpg

***************************************************************

FILM TITLE: Transformers: Dark of the Moon (2011)

***************************************************************

Genre: Action | Adventure | Sci-Fi   

Release: 29 June 2011 (UK)

Director: Michael Bay

Writer: Ehren Kruger

Stars: Shia LaBeouf, Rosie Huntington-Whiteley and Tyrese Gibson

Country: USA

Language: English 

Plot:
The Autobots learn of a Cybertronian spacecraft hidden on the Moon, and race against the Decepticons to reach it and to learn its secrets.

IMDB Rating: IMDB Rating: 6.6/10 (76,529 votes)
 
http://www.imdb.com/title/tt1399103/ 

****************************************************************
 
http://www.torrentforce.org/imghost/4/greyshadow_transformers3x2641.png 
http://www.torrentforce.org/imghost/4/greyshadow_transformers3x2642.png 
http://www.torrentforce.org/imghost/4/greyshadow_transformers3x2643.png 
http://www.torrentforce.org/imghost/4/greyshadow_transformers3x2644.png

****************************************************************

[IMG]http://www.torrentforce.org/imghost/2/greyshadow_mediainfo.png[/IMG]
General
Complete name                    : (3) Transformers-Dark Of The Moon 2011 720p BDRip x264 aac (mp4) [TFRG].mp4
Format                           : MPEG-4
Format profile                   : Base Media
Codec ID                         : isom
File size                        : 3.75 GiB
Duration                         : 2h 34mn
Overall bit rate                 : 3481 Kbps
Encoded date                     : UTC 2011-10-05 12:33:45
Tagged date                      : UTC 2011-10-05 12:33:45

Video
ID                               : 1
Format                           : AVC
Format/Info                      : Advanced Video Codec
Format profile                   : High@L4.1
Format settings, CABAC           : Yes
Format settings, ReFrames        : 11 frames
Codec ID                         : avc1
Codec ID/Info                    : Advanced Video Coding
Duration                         : 2h 34mn
Bit rate                         : 3199 Kbps
Maximum bit rate                 : 17.3 Mbps
Width                            : 1280 pixels
Height                           : 528 pixels
Display aspect ratio             : 2.40:1
Frame rate mode                  : Constant
Frame rate                       : 23.976 fps
Color space                      : YUV
Chroma subsampling               : 4:2:0
Bit depth                        : 8 bits
Scan type                        : Progressive
Bits/(Pixel*Frame)               : 0.197
Stream size                      : 3.45 GiB (92%)
Title                            : AVC MPEG4 Video
Writing library                  : x264 core 118 r2085 8a62835
Encoded date                     : UTC 2011-09-28 09:33:31
Tagged date                      : UTC 2011-10-05 12:34:56
Color primaries                  : BT.709-5, BT.1361, IEC 61966-2-4, SMPTE RP177
Transfer characteristics         : BT.709-5, BT.1361
Matrix coefficients              : BT.709-5, BT.1361, IEC 61966-2-4 709, SMPTE RP177

Audio
ID                               : 2
Format                           : AAC
Format/Info                      : Advanced Audio Codec
Format profile                   : LC
Codec ID                         : 40
Duration                         : 2h 34mn
Bit rate mode                    : Variable
Bit rate                         : 278 Kbps
Maximum bit rate                 : 332 Kbps
Channel(s)                       : 6 channels
Channel positions                : Front: L C R, Side: L R, LFE
Sampling rate                    : 48.0 KHz
Compression mode                 : Lossy
Stream size                      : 307 MiB (8%)
Title                            : AAC 5.1 Audio
Language                         : English
Encoded date                     : UTC 2011-10-05 12:34:50
Tagged date                      : UTC 2011-10-05 12:34:56

****************************************************************

Video Source: Transformers:Dark Of The Moon 2011 BluRay 1080p AVC TrueHD7.1-CHDBits (43GB)

Thanks: CHP (chdbits.org)

****************************************************************

I provide a small sample, so please download this to check your 
compatibility first if you are unsure.

****************************************************************

7th October 2011

I am re-introducing my warning to all downloaders, please please
please use a proxy or vpn service, it is the only secure way to
keep your own ip address from being seen during downloading or
uploading/seeding, this WILL stop isp letters, as for advice to 
which one then thats simple, only Sweden has a law to prevent log 
details from being retained or handed over to a second party, so a 
vpntunnel.se server based in Sweden is the right one to use, I will
be canceling my vpn and transfering to a Swedish one 
immediately !!! enough said. 

****************************************************************

A big thanks to all the sites out there who care and share and
who make it possible for you to download this torrent for free.

Greetz to Westy, Ripwyn, mustang, noir, Blackjesus, MXMG, The Stig 
and all the other outstanding members of our community of file 
sharers and a special mention to our friends at 1337x.

****************************************************************

[IMG]http://www.torrentforce.org/imghost/3/greyshadow_GreyShadow2sig.png[/IMG]

****************************************************************